{
    "asset" : {
        "generator" : "Khronos glTF Blender I/O v1.1.46",
        "version" : "2.0"
    },
    "scene" : 0,
    "scenes" : [
        {
            "extras" : {
                "glTF2ExportSettings" : {
                    "export_apply" : 1,
                    "export_cameras" : 1,
                    "export_extras" : 1,
                    "export_format" : "GLTF_SEPARATE",
                    "export_lights" : 1,
                    "export_selected" : 1,
                    "export_tangents" : 1
                }
            },
            "name" : "Scene",
            "nodes" : [
                0,
                1
            ]
        }
    ],
    "nodes" : [
        {
            "mesh" : 0,
            "name" : "Ground Floor.001",
            "rotation" : [
                0,
                -0.7071067690849304,
                0,
                0.7071067690849304
            ],
            "scale" : [
                16,
                0.25,
                16
            ]
        },
        {
            "mesh" : 1,
            "name" : "Floors_Collider",
            "rotation" : [
                0,
                -0.7071067690849304,
                0,
                0.7071067690849304
            ],
            "scale" : [
                16,
                0.25,
                16
            ],
            "translation" : [
                0,
                30,
                0
            ]
        }
    ],
    "materials" : [
        {
            "doubleSided" : true,
            "emissiveFactor" : [
                0.11927617341279984,
                0.11927617341279984,
                0.11927617341279984
            ],
            "name" : "Material.004",
            "pbrMetallicRoughness" : {
                "baseColorFactor" : [
                    0.651405930519104,
                    0.6514057517051697,
                    0.6514058113098145,
                    1
                ],
                "metallicFactor" : 0,
                "roughnessFactor" : 1
            }
        },
        {
            "doubleSided" : true,
            "emissiveFactor" : [
                0.057802680879831314,
                0.057802680879831314,
                0.057802680879831314
            ],
            "name" : "Material.002",
            "pbrMetallicRoughness" : {
                "baseColorFactor" : [
                    0.035121046006679535,
                    0.15163181722164154,
                    0.31853941082954407,
                    1
                ],
                "metallicFactor" : 0,
                "roughnessFactor" : 1
            }
        },
        {
            "doubleSided" : true,
            "emissiveFactor" : [
                0.0019324419554322958,
                0,
                0.3108133375644684
            ],
            "name" : "Material.005",
            "pbrMetallicRoughness" : {}
        },
        {
            "doubleSided" : true,
            "emissiveFactor" : [
                0.28000468015670776,
                0,
                0.303197979927063
            ],
            "name" : "Material.006",
            "pbrMetallicRoughness" : {}
        }
    ],
    "meshes" : [
        {
            "name" : "Plane.049",
            "primitives" : [
                {
                    "attributes" : {
                        "POSITION" : 0,
                        "NORMAL" : 1,
                        "TEXCOORD_0" : 2
                    },
                    "indices" : 3,
                    "material" : 0
                },
                {
                    "attributes" : {
                        "POSITION" : 4,
                        "NORMAL" : 5,
                        "TEXCOORD_0" : 6
                    },
                    "indices" : 7,
                    "material" : 1
                },
                {
                    "attributes" : {
                        "POSITION" : 8,
                        "NORMAL" : 9,
                        "TEXCOORD_0" : 10
                    },
                    "indices" : 11,
                    "material" : 2
                },
                {
                    "attributes" : {
                        "POSITION" : 12,
                        "NORMAL" : 13,
                        "TEXCOORD_0" : 14
                    },
                    "indices" : 15,
                    "material" : 3
                }
            ]
        },
        {
            "name" : "Plane.053",
            "primitives" : [
                {
                    "attributes" : {
                        "POSITION" : 16,
                        "NORMAL" : 17,
                        "TEXCOORD_0" : 18
                    },
                    "indices" : 19
                }
            ]
        }
    ],
    "accessors" : [
        {
            "bufferView" : 0,
            "componentType" : 5126,
            "count" : 420,
            "max" : [
                1,
                161,
                1
            ],
            "min" : [
                -1,
                -1.9073486328125e-06,
                -1
            ],
            "type" : "VEC3"
        },
        {
            "bufferView" : 1,
            "componentType" : 5126,
            "count" : 420,
            "type" : "VEC3"
        },
        {
            "bufferView" : 2,
            "componentType" : 5126,
            "count" : 420,
            "type" : "VEC2"
        },
        {
            "bufferView" : 3,
            "componentType" : 5123,
            "count" : 804,
            "type" : "SCALAR"
        },
        {
            "bufferView" : 4,
            "componentType" : 5126,
            "count" : 308,
            "max" : [
                0.9375393986701965,
                160,
                0.9373406767845154
            ],
            "min" : [
                -0.9374606013298035,
                25,
                -0.9376593828201294
            ],
            "type" : "VEC3"
        },
        {
            "bufferView" : 5,
            "componentType" : 5126,
            "count" : 308,
            "type" : "VEC3"
        },
        {
            "bufferView" : 6,
            "componentType" : 5126,
            "count" : 308,
            "type" : "VEC2"
        },
        {
            "bufferView" : 7,
            "componentType" : 5123,
            "count" : 528,
            "type" : "SCALAR"
        },
        {
            "bufferView" : 8,
            "componentType" : 5126,
            "count" : 384,
            "max" : [
                0.9687894582748413,
                154.17257690429688,
                0.9685906767845154
            ],
            "min" : [
                -0.9687106013298035,
                30.16484832763672,
                -0.9689093828201294
            ],
            "type" : "VEC3"
        },
        {
            "bufferView" : 9,
            "componentType" : 5126,
            "count" : 384,
            "type" : "VEC3"
        },
        {
            "bufferView" : 10,
            "componentType" : 5126,
            "count" : 384,
            "type" : "VEC2"
        },
        {
            "bufferView" : 11,
            "componentType" : 5123,
            "count" : 657,
            "type" : "SCALAR"
        },
        {
            "bufferView" : 12,
            "componentType" : 5126,
            "count" : 732,
            "max" : [
                0.9124547243118286,
                154.16485595703125,
                0.9122559428215027
            ],
            "min" : [
                -0.9123758673667908,
                30.16484832763672,
                -0.9125746488571167
            ],
            "type" : "VEC3"
        },
        {
            "bufferView" : 13,
            "componentType" : 5126,
            "count" : 732,
            "type" : "VEC3"
        },
        {
            "bufferView" : 14,
            "componentType" : 5126,
            "count" : 732,
            "type" : "VEC2"
        },
        {
            "bufferView" : 15,
            "componentType" : 5123,
            "count" : 1350,
            "type" : "SCALAR"
        },
        {
            "bufferView" : 16,
            "componentType" : 5126,
            "count" : 536,
            "max" : [
                1,
                41.000003814697266,
                1
            ],
            "min" : [
                -1,
                -120,
                -1
            ],
            "type" : "VEC3"
        },
        {
            "bufferView" : 17,
            "componentType" : 5126,
            "count" : 536,
            "type" : "VEC3"
        },
        {
            "bufferView" : 18,
            "componentType" : 5126,
            "count" : 536,
            "type" : "VEC2"
        },
        {
            "bufferView" : 19,
            "componentType" : 5123,
            "count" : 1008,
            "type" : "SCALAR"
        }
    ],
    "bufferViews" : [
        {
            "buffer" : 0,
            "byteLength" : 5040,
            "byteOffset" : 0
        },
        {
            "buffer" : 0,
            "byteLength" : 5040,
            "byteOffset" : 5040
        },
        {
            "buffer" : 0,
            "byteLength" : 3360,
            "byteOffset" : 10080
        },
        {
            "buffer" : 0,
            "byteLength" : 1608,
            "byteOffset" : 13440
        },
        {
            "buffer" : 0,
            "byteLength" : 3696,
            "byteOffset" : 15048
        },
        {
            "buffer" : 0,
            "byteLength" : 3696,
            "byteOffset" : 18744
        },
        {
            "buffer" : 0,
            "byteLength" : 2464,
            "byteOffset" : 22440
        },
        {
            "buffer" : 0,
            "byteLength" : 1056,
            "byteOffset" : 24904
        },
        {
            "buffer" : 0,
            "byteLength" : 4608,
            "byteOffset" : 25960
        },
        {
            "buffer" : 0,
            "byteLength" : 4608,
            "byteOffset" : 30568
        },
        {
            "buffer" : 0,
            "byteLength" : 3072,
            "byteOffset" : 35176
        },
        {
            "buffer" : 0,
            "byteLength" : 1314,
            "byteOffset" : 38248
        },
        {
            "buffer" : 0,
            "byteLength" : 8784,
            "byteOffset" : 39564
        },
        {
            "buffer" : 0,
            "byteLength" : 8784,
            "byteOffset" : 48348
        },
        {
            "buffer" : 0,
            "byteLength" : 5856,
            "byteOffset" : 57132
        },
        {
            "buffer" : 0,
            "byteLength" : 2700,
            "byteOffset" : 62988
        },
        {
            "buffer" : 0,
            "byteLength" : 6432,
            "byteOffset" : 65688
        },
        {
            "buffer" : 0,
            "byteLength" : 6432,
            "byteOffset" : 72120
        },
        {
            "buffer" : 0,
            "byteLength" : 4288,
            "byteOffset" : 78552
        },
        {
            "buffer" : 0,
            "byteLength" : 2016,
            "byteOffset" : 82840
        }
    ],
    "buffers" : [
        {
            "byteLength" : 84856,
            "uri" : "FinalStudzArtcadeNeon.bin"
        }
    ]
}
