{
    "asset" : {
        "generator" : "Khronos glTF Blender I/O v1.1.46",
        "version" : "2.0"
    },
    "scene" : 0,
    "scenes" : [
        {
            "extras" : {
                "glTF2ExportSettings" : {
                    "export_apply" : 1,
                    "export_cameras" : 1,
                    "export_extras" : 1,
                    "export_format" : "GLTF_EMBEDDED",
                    "export_lights" : 1,
                    "export_selected" : 1,
                    "export_tangents" : 1
                }
            },
            "name" : "Scene",
            "nodes" : [
                0,
                1
            ]
        }
    ],
    "nodes" : [
        {
            "mesh" : 0,
            "name" : "Ground Floor.005",
            "rotation" : [
                0,
                -0.7071067690849304,
                0,
                0.7071067690849304
            ],
            "scale" : [
                16,
                0.25,
                16
            ]
        },
        {
            "mesh" : 1,
            "name" : "Floorss_Collider",
            "rotation" : [
                0,
                -0.7071067690849304,
                0,
                0.7071067690849304
            ],
            "scale" : [
                16,
                0.25,
                16
            ],
            "translation" : [
                0,
                30,
                0
            ]
        }
    ],
    "materials" : [
        {
            "doubleSided" : true,
            "emissiveFactor" : [
                0,
                0,
                0
            ],
            "name" : "MiniTownMap",
            "pbrMetallicRoughness" : {
                "baseColorTexture" : {
                    "index" : 0,
                    "texCoord" : 0
                },
                "metallicFactor" : 0,
                "roughnessFactor" : 1
            }
        },
        {
            "doubleSided" : true,
            "emissiveFactor" : [
                0.05483245104551315,
                0.2667579650878906,
                0.19758246839046478
            ],
            "name" : "Neons DCL",
            "pbrMetallicRoughness" : {}
        },
        {
            "doubleSided" : true,
            "emissiveFactor" : [
                0.07949385792016983,
                0.022804174572229385,
                0.22696524858474731
            ],
            "name" : "Neon Artcade",
            "pbrMetallicRoughness" : {}
        }
    ],
    "meshes" : [
        {
            "name" : "Plane.095",
            "primitives" : [
                {
                    "attributes" : {
                        "POSITION" : 0,
                        "NORMAL" : 1,
                        "TEXCOORD_0" : 2
                    },
                    "indices" : 3,
                    "material" : 0
                },
                {
                    "attributes" : {
                        "POSITION" : 4,
                        "NORMAL" : 5,
                        "TEXCOORD_0" : 6
                    },
                    "indices" : 7,
                    "material" : 1
                },
                {
                    "attributes" : {
                        "POSITION" : 8,
                        "NORMAL" : 9,
                        "TEXCOORD_0" : 10
                    },
                    "indices" : 11,
                    "material" : 2
                }
            ]
        },
        {
            "name" : "Plane.097",
            "primitives" : [
                {
                    "attributes" : {
                        "POSITION" : 12,
                        "NORMAL" : 13,
                        "TEXCOORD_0" : 14
                    },
                    "indices" : 15
                }
            ]
        }
    ],
    "textures" : [
        {
            "source" : 0
        }
    ],
    "images" : [
        {
            "bufferView" : 4,
            "mimeType" : "image/png",
            "name" : "MiniTown_TX"
        }
    ],
    "accessors" : [
        {
            "bufferView" : 0,
            "componentType" : 5126,
            "count" : 1054,
            "max" : [
                1,
                161,
                1
            ],
            "min" : [
                -1,
                -1.9073486328125e-06,
                -1
            ],
            "type" : "VEC3"
        },
        {
            "bufferView" : 1,
            "componentType" : 5126,
            "count" : 1054,
            "type" : "VEC3"
        },
        {
            "bufferView" : 2,
            "componentType" : 5126,
            "count" : 1054,
            "type" : "VEC2"
        },
        {
            "bufferView" : 3,
            "componentType" : 5123,
            "count" : 1860,
            "type" : "SCALAR"
        },
        {
            "bufferView" : 5,
            "componentType" : 5126,
            "count" : 254,
            "max" : [
                0.9687894582748413,
                154.17257690429688,
                0.9685906767845154
            ],
            "min" : [
                -0.9687106013298035,
                30.16484832763672,
                -0.9689093828201294
            ],
            "type" : "VEC3"
        },
        {
            "bufferView" : 6,
            "componentType" : 5126,
            "count" : 254,
            "type" : "VEC3"
        },
        {
            "bufferView" : 7,
            "componentType" : 5126,
            "count" : 254,
            "type" : "VEC2"
        },
        {
            "bufferView" : 8,
            "componentType" : 5123,
            "count" : 465,
            "type" : "SCALAR"
        },
        {
            "bufferView" : 9,
            "componentType" : 5126,
            "count" : 524,
            "max" : [
                0.9120742678642273,
                154.16485595703125,
                0.9121127724647522
            ],
            "min" : [
                -0.9097682237625122,
                30.16484832763672,
                -0.9122960567474365
            ],
            "type" : "VEC3"
        },
        {
            "bufferView" : 10,
            "componentType" : 5126,
            "count" : 524,
            "type" : "VEC3"
        },
        {
            "bufferView" : 11,
            "componentType" : 5126,
            "count" : 524,
            "type" : "VEC2"
        },
        {
            "bufferView" : 12,
            "componentType" : 5123,
            "count" : 996,
            "type" : "SCALAR"
        },
        {
            "bufferView" : 13,
            "componentType" : 5126,
            "count" : 536,
            "max" : [
                1,
                41.000003814697266,
                1
            ],
            "min" : [
                -1,
                -120,
                -1
            ],
            "type" : "VEC3"
        },
        {
            "bufferView" : 14,
            "componentType" : 5126,
            "count" : 536,
            "type" : "VEC3"
        },
        {
            "bufferView" : 15,
            "componentType" : 5126,
            "count" : 536,
            "type" : "VEC2"
        },
        {
            "bufferView" : 16,
            "componentType" : 5123,
            "count" : 1008,
            "type" : "SCALAR"
        }
    ],
    "bufferViews" : [
        {
            "buffer" : 0,
            "byteLength" : 12648,
            "byteOffset" : 0
        },
        {
            "buffer" : 0,
            "byteLength" : 12648,
            "byteOffset" : 12648
        },
        {
            "buffer" : 0,
            "byteLength" : 8432,
            "byteOffset" : 25296
        },
        {
            "buffer" : 0,
            "byteLength" : 3720,
            "byteOffset" : 33728
        },
        {
            "buffer" : 0,
            "byteLength" : 5038,
            "byteOffset" : 37448
        },
        {
            "buffer" : 0,
            "byteLength" : 3048,
            "byteOffset" : 42488
        },
        {
            "buffer" : 0,
            "byteLength" : 3048,
            "byteOffset" : 45536
        },
        {
            "buffer" : 0,
            "byteLength" : 2032,
            "byteOffset" : 48584
        },
        {
            "buffer" : 0,
            "byteLength" : 930,
            "byteOffset" : 50616
        },
        {
            "buffer" : 0,
            "byteLength" : 6288,
            "byteOffset" : 51548
        },
        {
            "buffer" : 0,
            "byteLength" : 6288,
            "byteOffset" : 57836
        },
        {
            "buffer" : 0,
            "byteLength" : 4192,
            "byteOffset" : 64124
        },
        {
            "buffer" : 0,
            "byteLength" : 1992,
            "byteOffset" : 68316
        },
        {
            "buffer" : 0,
            "byteLength" : 6432,
            "byteOffset" : 70308
        },
        {
            "buffer" : 0,
            "byteLength" : 6432,
            "byteOffset" : 76740
        },
        {
            "buffer" : 0,
            "byteLength" : 4288,
            "byteOffset" : 83172
        },
        {
            "buffer" : 0,
            "byteLength" : 2016,
            "byteOffset" : 87460
        }
    ],
    "buffers" : [
        {
            "byteLength" : 89476,
            "uri" : "data:application/octet-stream;base64,"
        }
    ]
}
