{
    "asset" : {
        "generator" : "Khronos glTF Blender I/O v1.1.46",
        "version" : "2.0"
    },
    "scene" : 0,
    "scenes" : [
        {
            "extras" : {
                "glTF2ExportSettings" : {
                    "export_apply" : 1,
                    "export_cameras" : 1,
                    "export_extras" : 1,
                    "export_format" : "GLTF_SEPARATE",
                    "export_lights" : 1,
                    "export_selected" : 1,
                    "export_tangents" : 1
                }
            },
            "name" : "Scene",
            "nodes" : [
                0,
                1
            ]
        }
    ],
    "nodes" : [
        {
            "mesh" : 0,
            "name" : "Ground Floor.003",
            "rotation" : [
                0,
                -0.7071067690849304,
                0,
                0.7071067690849304
            ],
            "scale" : [
                16,
                0.25,
                16
            ]
        },
        {
            "mesh" : 1,
            "name" : "Floors_Collider.004",
            "rotation" : [
                0,
                -0.7071067690849304,
                0,
                0.7071067690849304
            ],
            "scale" : [
                16,
                0.25,
                16
            ],
            "translation" : [
                0,
                30,
                0
            ]
        }
    ],
    "materials" : [
        {
            "doubleSided" : true,
            "emissiveFactor" : [
                0.11927617341279984,
                0.11927617341279984,
                0.11927617341279984
            ],
            "name" : "Material.004",
            "pbrMetallicRoughness" : {
                "baseColorFactor" : [
                    0.651405930519104,
                    0.6514057517051697,
                    0.6514058113098145,
                    1
                ],
                "metallicFactor" : 0,
                "roughnessFactor" : 1
            }
        },
        {
            "doubleSided" : true,
            "emissiveFactor" : [
                0.057802680879831314,
                0.057802680879831314,
                0.057802680879831314
            ],
            "name" : "Material.002",
            "pbrMetallicRoughness" : {
                "baseColorFactor" : [
                    0.03560131788253784,
                    0.15292620658874512,
                    0.318546861410141,
                    1
                ],
                "metallicFactor" : 0,
                "roughnessFactor" : 1
            }
        },
        {
            "doubleSided" : true,
            "emissiveFactor" : [
                0.0009855089010670781,
                0,
                0.17886102199554443
            ],
            "name" : "Material.005",
            "pbrMetallicRoughness" : {}
        },
        {
            "doubleSided" : true,
            "emissiveFactor" : [
                0.08408704400062561,
                0.006020172964781523,
                0.303197979927063
            ],
            "name" : "Material.006",
            "pbrMetallicRoughness" : {}
        }
    ],
    "meshes" : [
        {
            "name" : "Plane.052",
            "primitives" : [
                {
                    "attributes" : {
                        "POSITION" : 0,
                        "NORMAL" : 1,
                        "TEXCOORD_0" : 2
                    },
                    "indices" : 3,
                    "material" : 0
                },
                {
                    "attributes" : {
                        "POSITION" : 4,
                        "NORMAL" : 5,
                        "TEXCOORD_0" : 6
                    },
                    "indices" : 7,
                    "material" : 1
                },
                {
                    "attributes" : {
                        "POSITION" : 8,
                        "NORMAL" : 9,
                        "TEXCOORD_0" : 10
                    },
                    "indices" : 11,
                    "material" : 2
                },
                {
                    "attributes" : {
                        "POSITION" : 12,
                        "NORMAL" : 13,
                        "TEXCOORD_0" : 14
                    },
                    "indices" : 15,
                    "material" : 3
                }
            ]
        },
        {
            "name" : "Plane.056",
            "primitives" : [
                {
                    "attributes" : {
                        "POSITION" : 16,
                        "NORMAL" : 17,
                        "TEXCOORD_0" : 18
                    },
                    "indices" : 19
                }
            ]
        }
    ],
    "accessors" : [
        {
            "bufferView" : 0,
            "componentType" : 5126,
            "count" : 330,
            "max" : [
                1,
                121,
                1
            ],
            "min" : [
                -1,
                -1.9073486328125e-06,
                -1
            ],
            "type" : "VEC3"
        },
        {
            "bufferView" : 1,
            "componentType" : 5126,
            "count" : 330,
            "type" : "VEC3"
        },
        {
            "bufferView" : 2,
            "componentType" : 5126,
            "count" : 330,
            "type" : "VEC2"
        },
        {
            "bufferView" : 3,
            "componentType" : 5123,
            "count" : 630,
            "type" : "SCALAR"
        },
        {
            "bufferView" : 4,
            "componentType" : 5126,
            "count" : 398,
            "max" : [
                1,
                161,
                1
            ],
            "min" : [
                -1,
                25,
                -1
            ],
            "type" : "VEC3"
        },
        {
            "bufferView" : 5,
            "componentType" : 5126,
            "count" : 398,
            "type" : "VEC3"
        },
        {
            "bufferView" : 6,
            "componentType" : 5126,
            "count" : 398,
            "type" : "VEC2"
        },
        {
            "bufferView" : 7,
            "componentType" : 5123,
            "count" : 702,
            "type" : "SCALAR"
        },
        {
            "bufferView" : 8,
            "componentType" : 5126,
            "count" : 370,
            "max" : [
                0.9687894582748413,
                154.17257690429688,
                0.9685906767845154
            ],
            "min" : [
                -0.9687106013298035,
                30.16484832763672,
                -0.9689093828201294
            ],
            "type" : "VEC3"
        },
        {
            "bufferView" : 9,
            "componentType" : 5126,
            "count" : 370,
            "type" : "VEC3"
        },
        {
            "bufferView" : 10,
            "componentType" : 5126,
            "count" : 370,
            "type" : "VEC2"
        },
        {
            "bufferView" : 11,
            "componentType" : 5123,
            "count" : 639,
            "type" : "SCALAR"
        },
        {
            "bufferView" : 12,
            "componentType" : 5126,
            "count" : 732,
            "max" : [
                0.9124547243118286,
                154.16485595703125,
                0.9122559428215027
            ],
            "min" : [
                -0.9123758673667908,
                30.16484832763672,
                -0.9125746488571167
            ],
            "type" : "VEC3"
        },
        {
            "bufferView" : 13,
            "componentType" : 5126,
            "count" : 732,
            "type" : "VEC3"
        },
        {
            "bufferView" : 14,
            "componentType" : 5126,
            "count" : 732,
            "type" : "VEC2"
        },
        {
            "bufferView" : 15,
            "componentType" : 5123,
            "count" : 1350,
            "type" : "SCALAR"
        },
        {
            "bufferView" : 16,
            "componentType" : 5126,
            "count" : 536,
            "max" : [
                1,
                41.000003814697266,
                1
            ],
            "min" : [
                -1,
                -120,
                -1
            ],
            "type" : "VEC3"
        },
        {
            "bufferView" : 17,
            "componentType" : 5126,
            "count" : 536,
            "type" : "VEC3"
        },
        {
            "bufferView" : 18,
            "componentType" : 5126,
            "count" : 536,
            "type" : "VEC2"
        },
        {
            "bufferView" : 19,
            "componentType" : 5123,
            "count" : 1008,
            "type" : "SCALAR"
        }
    ],
    "bufferViews" : [
        {
            "buffer" : 0,
            "byteLength" : 3960,
            "byteOffset" : 0
        },
        {
            "buffer" : 0,
            "byteLength" : 3960,
            "byteOffset" : 3960
        },
        {
            "buffer" : 0,
            "byteLength" : 2640,
            "byteOffset" : 7920
        },
        {
            "buffer" : 0,
            "byteLength" : 1260,
            "byteOffset" : 10560
        },
        {
            "buffer" : 0,
            "byteLength" : 4776,
            "byteOffset" : 11820
        },
        {
            "buffer" : 0,
            "byteLength" : 4776,
            "byteOffset" : 16596
        },
        {
            "buffer" : 0,
            "byteLength" : 3184,
            "byteOffset" : 21372
        },
        {
            "buffer" : 0,
            "byteLength" : 1404,
            "byteOffset" : 24556
        },
        {
            "buffer" : 0,
            "byteLength" : 4440,
            "byteOffset" : 25960
        },
        {
            "buffer" : 0,
            "byteLength" : 4440,
            "byteOffset" : 30400
        },
        {
            "buffer" : 0,
            "byteLength" : 2960,
            "byteOffset" : 34840
        },
        {
            "buffer" : 0,
            "byteLength" : 1278,
            "byteOffset" : 37800
        },
        {
            "buffer" : 0,
            "byteLength" : 8784,
            "byteOffset" : 39080
        },
        {
            "buffer" : 0,
            "byteLength" : 8784,
            "byteOffset" : 47864
        },
        {
            "buffer" : 0,
            "byteLength" : 5856,
            "byteOffset" : 56648
        },
        {
            "buffer" : 0,
            "byteLength" : 2700,
            "byteOffset" : 62504
        },
        {
            "buffer" : 0,
            "byteLength" : 6432,
            "byteOffset" : 65204
        },
        {
            "buffer" : 0,
            "byteLength" : 6432,
            "byteOffset" : 71636
        },
        {
            "buffer" : 0,
            "byteLength" : 4288,
            "byteOffset" : 78068
        },
        {
            "buffer" : 0,
            "byteLength" : 2016,
            "byteOffset" : 82356
        }
    ],
    "buffers" : [
        {
            "byteLength" : 84372,
            "uri" : "StudzArtcadeBuilding_NeonCuts_1.bin"
        }
    ]
}
